<svg height="512" viewBox="0 0 512 512" width="512" xmlns="http://www.w3.org/2000/svg"><g id="flat"><path d="m488 214a38 38 0 0 0 -38-38h-98.847a38 38 0 0 0 -37.263 30.548l-9.89 49.452h48v128h128v-128h8z" fill="#eaeae8"/><path d="m360 240a8 8 0 0 1 -8-8v-56a8 8 0 0 1 16 0v56a8 8 0 0 1 -8 8z" fill="#533222"/><path d="m440 240a8 8 0 0 1 -8-8v-56a8 8 0 0 1 16 0v56a8 8 0 0 1 -8 8z" fill="#533222"/><path d="m96 299.894v4.106a16 16 0 0 0 16 16v20a20 20 0 0 0 20 20 20 20 0 0 0 20-20v-40.106a27.893 27.893 0 0 0 -27.894-27.894h-.212a27.893 27.893 0 0 0 -27.894 27.894z" fill="#d32b39"/><path d="m480 384h-128v104h48l8-48h16l8 48h48z" fill="#d18d28"/><path d="m432 128v-32a32 32 0 0 0 -64 0v32a31.978 31.978 0 0 0 16 27.708v20.292h-8v8a24 24 0 0 0 48 0v-8h-8v-20.292a31.978 31.978 0 0 0 16-27.708z" fill="#fdc9a6"/><path d="m24 392h272a0 0 0 0 1 0 0v40a56 56 0 0 1 -56 56h-160a56 56 0 0 1 -56-56v-40a0 0 0 0 1 0 0z" fill="#2cbff4"/><path d="m24 392h112a0 0 0 0 1 0 0v40a56 56 0 0 1 -56 56 56 56 0 0 1 -56-56v-40a0 0 0 0 1 0 0z" fill="#0a9acd"/><path d="m352 256-48 72h-48l-32 8-16-32 16-24 24 8h32l24-32z" fill="#fdc9a6"/><path d="m368 56h64v40h-64z" fill="#eaeae8"/><path d="m432 56v16a15.96 15.96 0 0 1 -10.99-4.39 24.009 24.009 0 0 1 -42.02 0 15.96 15.96 0 0 1 -10.99 4.39v-16z" fill="#cbcbcb"/><path d="m432 56v16a15.96 15.96 0 0 1 -10.99-4.39 24.009 24.009 0 0 1 -42.02 0 15.96 15.96 0 0 1 -10.99 4.39v-16z" fill="#a8a8a8"/><path d="m400 96 16 32h16v-32z" fill="#533222"/><path d="m352 232h96v112h8v96h-104z" fill="#683b0d"/><path d="m208 304h-56a16 16 0 0 0 -16 16 16 16 0 0 0 16 16h72z" fill="#a8a8a8"/><circle cx="72" cy="376" fill="#02a437" r="16"/><circle cx="264" cy="376" fill="#fd7422" r="16"/><rect fill="#683b0d" height="24" rx="12" width="48" x="168" y="368"/><g fill="#026ca2"><path d="m80 448a24.027 24.027 0 0 1 -24-24 8 8 0 0 1 16 0 8 8 0 0 0 16 0 8 8 0 0 1 16 0 24.027 24.027 0 0 1 -24 24z"/><path d="m184 448a8 8 0 0 1 -8-8v-16a8 8 0 0 1 16 0v16a8 8 0 0 1 -8 8z"/><path d="m216 448a8 8 0 0 1 -8-8v-16a8 8 0 0 1 16 0v16a8 8 0 0 1 -8 8z"/><path d="m248 448a8 8 0 0 1 -8-8v-16a8 8 0 0 1 16 0v16a8 8 0 0 1 -8 8z"/></g><path d="m384 296h64a0 0 0 0 1 0 0v34a14 14 0 0 1 -14 14h-36a14 14 0 0 1 -14-14v-34a0 0 0 0 1 0 0z" fill="#533222"/><path d="m488 256v56l-46.502 80.633-17.498 8-24-8.633v-24l16-16 32-56v-40z" fill="#fdc9a6"/><path d="m62 256a8 8 0 0 1 -8-8 23.22 23.22 0 0 1 2.845-11.578 9.044 9.044 0 0 0 0-8.845 24.981 24.981 0 0 1 0-23.156 7.8 7.8 0 0 0 1.155-4.421 8 8 0 0 1 16 0 23.218 23.218 0 0 1 -2.845 11.577 9.042 9.042 0 0 0 0 8.844 24.981 24.981 0 0 1 0 23.156 7.8 7.8 0 0 0 -1.155 4.423 8 8 0 0 1 -8 8z" fill="#fbb540"/><path d="m110 256a8 8 0 0 1 -8-8 23.22 23.22 0 0 1 2.845-11.578 9.044 9.044 0 0 0 0-8.845 24.981 24.981 0 0 1 0-23.156 7.8 7.8 0 0 0 1.155-4.421 8 8 0 0 1 16 0 23.218 23.218 0 0 1 -2.845 11.577 9.042 9.042 0 0 0 0 8.844 24.981 24.981 0 0 1 0 23.156 7.8 7.8 0 0 0 -1.155 4.423 8 8 0 0 1 -8 8z" fill="#fbb540"/><path d="m166 256a8 8 0 0 1 -8-8 23.22 23.22 0 0 1 2.845-11.578 9.044 9.044 0 0 0 0-8.845 24.981 24.981 0 0 1 0-23.156 7.8 7.8 0 0 0 1.155-4.421 8 8 0 0 1 16 0 23.218 23.218 0 0 1 -2.845 11.577 9.042 9.042 0 0 0 0 8.844 24.981 24.981 0 0 1 0 23.156 7.8 7.8 0 0 0 -1.155 4.423 8 8 0 0 1 -8 8z" fill="#fbb540"/><path d="m432 32a15.927 15.927 0 0 0 -10.992 4.394 24 24 0 0 0 -42.016 0 16 16 0 1 0 0 23.212 24 24 0 0 0 42.016 0 15.994 15.994 0 1 0 10.992-27.606z" fill="#eaeae8"/></g></svg>